# xmcd
# 
# Track frame offsets:
#     150
#     14462
#     39490
#     59097
#     87415
#     106204
#     118243
#     141838
# 
# Disc length: 2324
# 
# Revision: 1
# Processed by: cddbd v1.5.2PL0 Copyright (c) Steve Scherf et al.
# Submitted via: fre:ac v1.0.31
# 
DISCID=70091208
DTITLE=Brinsley Schwarz - Desipite It All
DYEAR=1970
DGENRE=Folk-Rock
TTITLE0=Country Girl
TTITLE1=The Slow One
TTITLE2=Funk Angel
TTITLE3=Piece Of Home
TTITLE4=Love Song
TTITLE5=Starship
TTITLE6=Ebury Down
TTITLE7=Old Jarow
EXTD=Brinsley Schwarz - Original Album Series (2014) [Box-Set]\n\nMARO\n
EXTT0=
EXTT1=
EXTT2=
EXTT3=
EXTT4=
EXTT5=
EXTT6=
EXTT7=
PLAYORDER=
